<?xml version="1.0" encoding="utf-8" standalone="no"?>
<!DOCTYPE svg PUBLIC "-//W3C//DTD SVG 1.1//EN"
  "http://www.w3.org/Graphics/SVG/1.1/DTD/svg11.dtd">
<!-- Created with matplotlib (https://matplotlib.org/) -->
<svg height="432pt" version="1.1" viewBox="0 0 576 432" width="576pt" xmlns="http://www.w3.org/2000/svg" xmlns:xlink="http://www.w3.org/1999/xlink">
 <metadata>
  <rdf:RDF xmlns:cc="http://creativecommons.org/ns#" xmlns:dc="http://purl.org/dc/elements/1.1/" xmlns:rdf="http://www.w3.org/1999/02/22-rdf-syntax-ns#">
   <cc:Work>
    <dc:type rdf:resource="http://purl.org/dc/dcmitype/StillImage"/>
    <dc:date>2021-06-11T12:34:59.001194</dc:date>
    <dc:format>image/svg+xml</dc:format>
    <dc:creator>
     <cc:Agent>
      <dc:title>Matplotlib v3.3.3, https://matplotlib.org/</dc:title>
     </cc:Agent>
    </dc:creator>
   </cc:Work>
  </rdf:RDF>
 </metadata>
 <defs>
  <style type="text/css">*{stroke-linecap:butt;stroke-linejoin:round;}</style>
 </defs>
 <g id="figure_1">
  <g id="patch_1">
   <path d="M 0 432 
L 576 432 
L 576 0 
L 0 0 
z
" style="fill:#ffffff;"/>
  </g>
  <g id="axes_1">
   <g id="patch_2">
    <path d="M 425.59488 220.82112 
C 425.59488 194.682663 417.892646 169.114725 403.454678 147.325645 
C 389.01671 125.536565 368.473276 108.477515 344.402226 98.289114 
C 320.331177 88.100713 293.783299 85.227722 268.089899 90.030652 
C 242.3965 94.833582 218.679186 107.102768 199.914077 125.298636 
C 181.148968 143.494504 168.155228 166.822739 162.563349 192.356047 
C 156.971469 217.889355 159.025557 244.513116 168.467858 268.8865 
C 177.91016 293.259885 194.328485 314.318908 215.662614 329.421023 
C 236.996743 344.523137 262.315365 353.009082 288.441425 353.814015 
L 290.28528 293.967212 
C 275.915947 293.524499 261.990705 288.85723 250.256934 280.551067 
C 238.523163 272.244903 229.493084 260.66244 224.299818 247.257079 
C 219.106552 233.851718 217.976804 219.208649 221.052338 205.16533 
C 224.127871 191.122011 231.274428 178.291481 241.595238 168.283754 
C 251.916048 158.276026 264.960571 151.527974 279.091941 148.886363 
C 293.223311 146.244751 307.824643 147.824896 321.06372 153.428517 
C 334.302798 159.032137 345.601686 168.414615 353.542569 180.398609 
C 361.483452 192.382603 365.71968 206.444969 365.71968 220.82112 
L 425.59488 220.82112 
z
" style="fill:#2b472b;opacity:0.5;stroke:#2b472b;stroke-linejoin:miter;"/>
   </g>
   <g id="patch_3">
    <path d="M 288.441425 353.814015 
C 310.397598 354.490475 332.183372 349.719314 351.847056 339.92796 
C 371.510741 330.136606 388.447067 315.626446 401.138786 297.697381 
L 352.268829 263.103063 
C 345.288383 272.964049 335.973403 280.944637 325.158377 286.329882 
C 314.34335 291.715127 302.361175 294.339265 290.28528 293.967212 
L 288.441425 353.814015 
z
" style="fill:#4c3025;opacity:0.5;stroke:#4c3025;stroke-linejoin:miter;"/>
   </g>
   <g id="patch_4">
    <path d="M 401.138786 297.697381 
C 409.046963 286.525827 415.184189 274.200612 419.333536 261.157385 
C 423.482884 248.114158 425.594882 234.508426 425.59488 220.821101 
L 365.71968 220.82111 
C 365.719681 228.349138 364.558082 235.832291 362.275941 243.006066 
C 359.9938 250.179841 356.618326 256.958709 352.268829 263.103063 
L 401.138786 297.697381 
z
" style="fill:#472747;opacity:0.5;stroke:#472747;stroke-linejoin:miter;"/>
   </g>
   <g id="patch_5">
    <path d="M 365.71968 220.82112 
C 365.71968 215.556785 365.151637 210.307784 364.025422 205.165327 
C 362.899206 200.02287 361.221379 195.016915 359.021096 190.234449 
L 331.823826 202.747178 
C 333.123993 205.573181 334.115436 208.531245 334.780927 211.569969 
C 335.446418 214.608694 335.78208 217.710376 335.78208 220.82112 
L 365.71968 220.82112 
z
" style="fill:#123622;opacity:0.5;stroke:#123622;stroke-linejoin:miter;"/>
   </g>
   <g id="patch_6">
    <path d="M 359.021096 190.234449 
C 356.505744 184.767159 353.32555 179.630969 349.552622 174.942337 
C 345.779693 170.253704 341.442764 166.048336 336.640168 162.421583 
L 318.598732 186.312303 
C 321.43663 188.455384 323.999361 190.940374 326.228818 193.71093 
C 328.458276 196.481485 330.337481 199.516507 331.823826 202.747178 
L 359.021096 190.234449 
z
" style="fill:#123622;opacity:0.5;stroke:#123622;stroke-linejoin:miter;"/>
   </g>
   <g id="patch_7">
    <path d="M 336.640168 162.421583 
C 322.088847 151.432934 303.943176 146.270044 285.786615 147.952496 
C 267.630053 149.634947 250.742025 158.044184 238.457623 171.519526 
L 260.581774 191.68836 
C 267.840738 183.725658 277.820028 178.756563 288.548905 177.762387 
C 299.277782 176.768212 310.000224 179.81901 318.598732 186.312303 
L 336.640168 162.421583 
z
" style="fill:#123622;opacity:0.5;stroke:#123622;stroke-linejoin:miter;"/>
   </g>
   <g id="patch_8">
    <path d="M 238.457623 171.519526 
C 234.911063 175.409916 231.794622 179.671662 229.162454 184.23071 
C 226.530285 188.789758 224.397724 193.619547 222.801826 198.636153 
L 251.330621 207.711821 
C 252.273651 204.747463 253.533801 201.893497 255.089174 199.199514 
C 256.644546 196.505531 258.486079 193.987227 260.581774 191.68836 
L 238.457623 171.519526 
z
" style="fill:#123622;opacity:0.5;stroke:#123622;stroke-linejoin:miter;"/>
   </g>
   <g id="patch_9">
    <path d="M 222.801826 198.636153 
C 219.37023 209.42316 218.487794 220.860703 220.224138 232.04643 
C 221.960482 243.232157 226.268709 253.863961 232.808928 263.103058 
C 239.349146 272.342155 247.944716 279.939014 257.917499 285.294288 
C 267.890282 290.649563 278.970932 293.618617 290.285253 293.967211 
L 291.207191 264.04381 
C 284.521456 263.837823 277.973799 262.083382 272.080791 258.918901 
C 266.187783 255.754421 261.108583 251.265368 257.243908 245.805901 
C 253.379234 240.346435 250.833463 234.064005 249.807442 227.454258 
C 248.78142 220.84451 249.302859 214.085962 251.330621 207.711821 
L 222.801826 198.636153 
z
" style="fill:#123622;opacity:0.5;stroke:#123622;stroke-linejoin:miter;"/>
   </g>
   <g id="patch_10">
    <path d="M 290.285253 293.967211 
C 302.361146 294.339269 314.343322 291.715136 325.158349 286.329896 
C 335.973377 280.944656 345.288359 272.964073 352.268809 263.103091 
L 327.833838 245.805921 
C 323.709027 251.632865 318.204719 256.348664 311.814021 259.530851 
C 305.423323 262.713038 298.342946 264.263662 291.207191 264.04381 
L 290.285253 293.967211 
z
" style="fill:#4c1500;opacity:0.5;stroke:#4c1500;stroke-linejoin:miter;"/>
   </g>
   <g id="patch_11">
    <path d="M 352.268809 263.103091 
C 354.005733 260.649413 355.589814 258.091036 357.012045 255.442507 
C 358.434276 252.793979 359.691956 250.060328 360.777934 247.257098 
L 332.861958 236.44238 
C 332.220243 238.098834 331.477069 239.714173 330.636659 241.279212 
C 329.79625 242.844252 328.860202 244.35602 327.833838 245.805921 
L 352.268809 263.103091 
z
" style="fill:#2e0f3d;opacity:0.5;stroke:#2e0f3d;stroke-linejoin:miter;"/>
   </g>
   <g id="patch_12">
    <path d="M 360.777934 247.257098 
C 362.407544 243.050594 363.644713 238.702403 364.473633 234.268083 
C 365.302553 229.833762 365.719678 225.332279 365.71968 220.821147 
L 335.78208 220.821136 
C 335.782079 223.486805 335.535596 226.146772 335.045779 228.767053 
C 334.555963 231.387333 333.824909 233.956718 332.861958 236.44238 
L 360.777934 247.257098 
z
" style="fill:#2e0f3d;opacity:0.5;stroke:#2e0f3d;stroke-linejoin:miter;"/>
   </g>
   <g id="patch_13">
    <path d="M 428.256 218.16 
C 428.256 192.021543 420.553766 166.453605 406.115798 144.664525 
C 391.67783 122.875445 371.134396 105.816395 347.063346 95.627994 
C 322.992297 85.439593 296.444419 82.566602 270.751019 87.369532 
C 245.05762 92.172462 221.340306 104.441648 202.575197 122.637516 
C 183.810088 140.833384 170.816348 164.161619 165.224469 189.694927 
C 159.632589 215.228235 161.686677 241.851996 171.128978 266.22538 
C 180.57128 290.598765 196.989605 311.657788 218.323734 326.759903 
C 239.657863 341.862017 264.976485 350.347962 291.102545 351.152895 
L 292.9464 291.306092 
C 278.577067 290.863379 264.651825 286.19611 252.918054 277.889947 
C 241.184283 269.583783 232.154204 258.00132 226.960938 244.595959 
C 221.767672 231.190598 220.637924 216.547529 223.713458 202.50421 
C 226.788991 188.460891 233.935548 175.630361 244.256358 165.622634 
C 254.577168 155.614906 267.621691 148.866854 281.753061 146.225243 
C 295.884431 143.583631 310.485763 145.163776 323.72484 150.767397 
C 336.963918 156.371017 348.262806 165.753495 356.203689 177.737489 
C 364.144572 189.721483 368.3808 203.783849 368.3808 218.16 
L 428.256 218.16 
z
" style="fill:#90ee90;stroke:#ffffff;stroke-linejoin:miter;"/>
   </g>
   <g id="patch_14">
    <path d="M 291.102545 351.152895 
C 313.058718 351.829355 334.844492 347.058194 354.508176 337.26684 
C 374.171861 327.475486 391.108187 312.965326 403.799906 295.036261 
L 354.929949 260.441943 
C 347.949503 270.302929 338.634523 278.283517 327.819497 283.668762 
C 317.00447 289.054007 305.022295 291.678145 292.9464 291.306092 
L 291.102545 351.152895 
z
" style="fill:#ffa07a;stroke:#ffffff;stroke-linejoin:miter;"/>
   </g>
   <g id="patch_15">
    <path d="M 403.799906 295.036261 
C 411.708083 283.864707 417.845309 271.539492 421.994656 258.496265 
C 426.144004 245.453038 428.256002 231.847306 428.256 218.159981 
L 368.3808 218.15999 
C 368.380801 225.688018 367.219202 233.171171 364.937061 240.344946 
C 362.65492 247.518721 359.279446 254.297589 354.929949 260.441943 
L 403.799906 295.036261 
z
" style="fill:#ee82ee;stroke:#ffffff;stroke-linejoin:miter;"/>
   </g>
   <g id="patch_16">
    <path d="M 368.3808 218.16 
C 368.3808 212.895665 367.812757 207.646664 366.686542 202.504207 
C 365.560326 197.36175 363.882499 192.355795 361.682216 187.573329 
L 334.484946 200.086058 
C 335.785113 202.912061 336.776556 205.870125 337.442047 208.908849 
C 338.107538 211.947574 338.4432 215.049256 338.4432 218.16 
L 368.3808 218.16 
z
" style="fill:#3cb371;stroke:#ffffff;stroke-linejoin:miter;"/>
   </g>
   <g id="patch_17">
    <path d="M 361.682216 187.573329 
C 359.166864 182.106039 355.98667 176.969849 352.213742 172.281217 
C 348.440813 167.592584 344.103884 163.387216 339.301288 159.760463 
L 321.259852 183.651183 
C 324.09775 185.794264 326.660481 188.279254 328.889938 191.04981 
C 331.119396 193.820365 332.998601 196.855387 334.484946 200.086058 
L 361.682216 187.573329 
z
" style="fill:#3cb371;stroke:#ffffff;stroke-linejoin:miter;"/>
   </g>
   <g id="patch_18">
    <path d="M 339.301288 159.760463 
C 324.749967 148.771814 306.604296 143.608924 288.447735 145.291376 
C 270.291173 146.973827 253.403145 155.383064 241.118743 168.858406 
L 263.242894 189.02724 
C 270.501858 181.064538 280.481148 176.095443 291.210025 175.101267 
C 301.938902 174.107092 312.661344 177.15789 321.259852 183.651183 
L 339.301288 159.760463 
z
" style="fill:#3cb371;stroke:#ffffff;stroke-linejoin:miter;"/>
   </g>
   <g id="patch_19">
    <path d="M 241.118743 168.858406 
C 237.572183 172.748796 234.455742 177.010542 231.823574 181.56959 
C 229.191405 186.128638 227.058844 190.958427 225.462946 195.975033 
L 253.991741 205.050701 
C 254.934771 202.086343 256.194921 199.232377 257.750294 196.538394 
C 259.305666 193.844411 261.147199 191.326107 263.242894 189.02724 
L 241.118743 168.858406 
z
" style="fill:#3cb371;stroke:#ffffff;stroke-linejoin:miter;"/>
   </g>
   <g id="patch_20">
    <path d="M 225.462946 195.975033 
C 222.03135 206.76204 221.148914 218.199583 222.885258 229.38531 
C 224.621602 240.571037 228.929829 251.202841 235.470048 260.441938 
C 242.010266 269.681035 250.605836 277.277894 260.578619 282.633168 
C 270.551402 287.988443 281.632052 290.957497 292.946373 291.306091 
L 293.868311 261.38269 
C 287.182576 261.176703 280.634919 259.422262 274.741911 256.257781 
C 268.848903 253.093301 263.769703 248.604248 259.905028 243.144781 
C 256.040354 237.685315 253.494583 231.402885 252.468562 224.793138 
C 251.44254 218.18339 251.963979 211.424842 253.991741 205.050701 
L 225.462946 195.975033 
z
" style="fill:#3cb371;stroke:#ffffff;stroke-linejoin:miter;"/>
   </g>
   <g id="patch_21">
    <path d="M 292.946373 291.306091 
C 305.022266 291.678149 317.004442 289.054016 327.819469 283.668776 
C 338.634497 278.283536 347.949479 270.302953 354.929929 260.441971 
L 330.494958 243.144801 
C 326.370147 248.971745 320.865839 253.687544 314.475141 256.869731 
C 308.084443 260.051918 301.004066 261.602542 293.868311 261.38269 
L 292.946373 291.306091 
z
" style="fill:#ff4500;stroke:#ffffff;stroke-linejoin:miter;"/>
   </g>
   <g id="patch_22">
    <path d="M 354.929929 260.441971 
C 356.666853 257.988293 358.250934 255.429916 359.673165 252.781387 
C 361.095396 250.132859 362.353076 247.399208 363.439054 244.595978 
L 335.523078 233.78126 
C 334.881363 235.437714 334.138189 237.053053 333.297779 238.618092 
C 332.45737 240.183132 331.521322 241.6949 330.494958 243.144801 
L 354.929929 260.441971 
z
" style="fill:#9932cc;stroke:#ffffff;stroke-linejoin:miter;"/>
   </g>
   <g id="patch_23">
    <path d="M 363.439054 244.595978 
C 365.068664 240.389474 366.305833 236.041283 367.134753 231.606963 
C 367.963673 227.172642 368.380798 222.671159 368.3808 218.160027 
L 338.4432 218.160016 
C 338.443199 220.825685 338.196716 223.485652 337.706899 226.105933 
C 337.217083 228.726213 336.486029 231.295598 335.523078 233.78126 
L 363.439054 244.595978 
z
" style="fill:#9932cc;stroke:#ffffff;stroke-linejoin:miter;"/>
   </g>
   <g id="matplotlib.axis_1"/>
   <g id="matplotlib.axis_2"/>
   <g id="text_1">
    <!-- CAP -->
    <g style="fill:#3cb371;" transform="translate(208.193433 140.632343)scale(0.14 -0.14)">
     <defs>
      <path d="M 67 4 
Q 61.8125 1.3125 56.203125 -0.046875 
Q 50.59375 -1.421875 44.484375 -1.421875 
Q 26.265625 -1.421875 15.625 8.765625 
Q 4.984375 18.953125 4.984375 36.375 
Q 4.984375 53.859375 15.625 64.03125 
Q 26.265625 74.21875 44.484375 74.21875 
Q 50.59375 74.21875 56.203125 72.84375 
Q 61.8125 71.484375 67 68.796875 
L 67 53.71875 
Q 61.765625 57.28125 56.6875 58.9375 
Q 51.609375 60.59375 46 60.59375 
Q 35.9375 60.59375 30.171875 54.140625 
Q 24.421875 47.703125 24.421875 36.375 
Q 24.421875 25.09375 30.171875 18.640625 
Q 35.9375 12.203125 46 12.203125 
Q 51.609375 12.203125 56.6875 13.859375 
Q 61.765625 15.53125 67 19.09375 
z
" id="DejaVuSans-Bold-67"/>
      <path d="M 53.421875 13.28125 
L 24.03125 13.28125 
L 19.390625 0 
L 0.484375 0 
L 27.484375 72.90625 
L 49.90625 72.90625 
L 76.90625 0 
L 58.015625 0 
z
M 28.71875 26.8125 
L 48.6875 26.8125 
L 38.71875 55.8125 
z
" id="DejaVuSans-Bold-65"/>
      <path d="M 9.1875 72.90625 
L 40.375 72.90625 
Q 54.296875 72.90625 61.734375 66.71875 
Q 69.1875 60.546875 69.1875 49.125 
Q 69.1875 37.640625 61.734375 31.46875 
Q 54.296875 25.296875 40.375 25.296875 
L 27.984375 25.296875 
L 27.984375 0 
L 9.1875 0 
z
M 27.984375 59.28125 
L 27.984375 38.921875 
L 38.375 38.921875 
Q 43.84375 38.921875 46.828125 41.578125 
Q 49.8125 44.234375 49.8125 49.125 
Q 49.8125 54 46.828125 56.640625 
Q 43.84375 59.28125 38.375 59.28125 
z
" id="DejaVuSans-Bold-80"/>
     </defs>
     <use xlink:href="#DejaVuSans-Bold-67"/>
     <use x="73.388672" xlink:href="#DejaVuSans-Bold-65"/>
     <use x="150.78125" xlink:href="#DejaVuSans-Bold-80"/>
    </g>
    <!-- 7.6h -->
    <g style="fill:#3cb371;" transform="translate(206.495933 156.309281)scale(0.14 -0.14)">
     <defs>
      <path d="M 6.6875 72.90625 
L 61.625 72.90625 
L 61.625 62.3125 
L 33.203125 0 
L 14.890625 0 
L 41.796875 59.078125 
L 6.6875 59.078125 
z
" id="DejaVuSans-Bold-55"/>
      <path d="M 10.203125 18.890625 
L 27.78125 18.890625 
L 27.78125 0 
L 10.203125 0 
z
" id="DejaVuSans-Bold-46"/>
      <path d="M 36.1875 35.984375 
Q 31.25 35.984375 28.78125 32.78125 
Q 26.3125 29.59375 26.3125 23.1875 
Q 26.3125 16.796875 28.78125 13.59375 
Q 31.25 10.40625 36.1875 10.40625 
Q 41.15625 10.40625 43.625 13.59375 
Q 46.09375 16.796875 46.09375 23.1875 
Q 46.09375 29.59375 43.625 32.78125 
Q 41.15625 35.984375 36.1875 35.984375 
z
M 59.421875 71 
L 59.421875 57.515625 
Q 54.78125 59.71875 50.671875 60.765625 
Q 46.578125 61.8125 42.671875 61.8125 
Q 34.28125 61.8125 29.59375 57.140625 
Q 24.90625 52.484375 24.125 43.3125 
Q 27.34375 45.703125 31.09375 46.890625 
Q 34.859375 48.09375 39.3125 48.09375 
Q 50.484375 48.09375 57.34375 41.546875 
Q 64.203125 35.015625 64.203125 24.421875 
Q 64.203125 12.703125 56.53125 5.640625 
Q 48.875 -1.421875 35.984375 -1.421875 
Q 21.78125 -1.421875 13.984375 8.171875 
Q 6.203125 17.78125 6.203125 35.40625 
Q 6.203125 53.46875 15.3125 63.796875 
Q 24.421875 74.125 40.28125 74.125 
Q 45.3125 74.125 50.046875 73.34375 
Q 54.78125 72.5625 59.421875 71 
z
" id="DejaVuSans-Bold-54"/>
      <path d="M 63.375 33.296875 
L 63.375 0 
L 45.796875 0 
L 45.796875 5.421875 
L 45.796875 25.390625 
Q 45.796875 32.5625 45.484375 35.25 
Q 45.171875 37.9375 44.390625 39.203125 
Q 43.359375 40.921875 41.59375 41.875 
Q 39.84375 42.828125 37.59375 42.828125 
Q 32.125 42.828125 29 38.59375 
Q 25.875 34.375 25.875 26.90625 
L 25.875 0 
L 8.40625 0 
L 8.40625 75.984375 
L 25.875 75.984375 
L 25.875 46.6875 
Q 29.828125 51.46875 34.265625 53.734375 
Q 38.71875 56 44.09375 56 
Q 53.5625 56 58.46875 50.1875 
Q 63.375 44.390625 63.375 33.296875 
z
" id="DejaVuSans-Bold-104"/>
     </defs>
     <use xlink:href="#DejaVuSans-Bold-55"/>
     <use x="69.580078" xlink:href="#DejaVuSans-Bold-46"/>
     <use x="107.568359" xlink:href="#DejaVuSans-Bold-54"/>
     <use x="177.148438" xlink:href="#DejaVuSans-Bold-104"/>
    </g>
   </g>
   <g id="text_2">
    <!-- Vélo -->
    <g style="fill:#ff4500;" transform="translate(323.878077 305.896923)scale(0.14 -0.14)">
     <defs>
      <path d="M 0.484375 72.90625 
L 19.390625 72.90625 
L 38.71875 19.09375 
L 58.015625 72.90625 
L 76.90625 72.90625 
L 49.90625 0 
L 27.484375 0 
z
" id="DejaVuSans-Bold-86"/>
      <path d="M 62.984375 27.484375 
L 62.984375 22.515625 
L 22.125 22.515625 
Q 22.75 16.359375 26.5625 13.28125 
Q 30.375 10.203125 37.203125 10.203125 
Q 42.71875 10.203125 48.5 11.84375 
Q 54.296875 13.484375 60.40625 16.796875 
L 60.40625 3.328125 
Q 54.203125 0.984375 48 -0.21875 
Q 41.796875 -1.421875 35.59375 -1.421875 
Q 20.75 -1.421875 12.515625 6.125 
Q 4.296875 13.671875 4.296875 27.296875 
Q 4.296875 40.671875 12.375 48.328125 
Q 20.453125 56 34.625 56 
Q 47.515625 56 55.25 48.234375 
Q 62.984375 40.484375 62.984375 27.484375 
z
M 45.015625 33.296875 
Q 45.015625 38.28125 42.109375 41.328125 
Q 39.203125 44.390625 34.515625 44.390625 
Q 29.4375 44.390625 26.265625 41.53125 
Q 23.09375 38.671875 22.3125 33.296875 
z
M 42.21875 79.984375 
L 56.03125 79.984375 
L 38.015625 61.625 
L 28.453125 61.625 
z
" id="DejaVuSans-Bold-233"/>
      <path d="M 8.40625 75.984375 
L 25.875 75.984375 
L 25.875 0 
L 8.40625 0 
z
" id="DejaVuSans-Bold-108"/>
      <path d="M 34.421875 43.5 
Q 28.609375 43.5 25.5625 39.328125 
Q 22.515625 35.15625 22.515625 27.296875 
Q 22.515625 19.4375 25.5625 15.25 
Q 28.609375 11.078125 34.421875 11.078125 
Q 40.140625 11.078125 43.15625 15.25 
Q 46.1875 19.4375 46.1875 27.296875 
Q 46.1875 35.15625 43.15625 39.328125 
Q 40.140625 43.5 34.421875 43.5 
z
M 34.421875 56 
Q 48.53125 56 56.46875 48.375 
Q 64.40625 40.765625 64.40625 27.296875 
Q 64.40625 13.8125 56.46875 6.1875 
Q 48.53125 -1.421875 34.421875 -1.421875 
Q 20.265625 -1.421875 12.28125 6.1875 
Q 4.296875 13.8125 4.296875 27.296875 
Q 4.296875 40.765625 12.28125 48.375 
Q 20.265625 56 34.421875 56 
z
" id="DejaVuSans-Bold-111"/>
     </defs>
     <use xlink:href="#DejaVuSans-Bold-86"/>
     <use x="71.892578" xlink:href="#DejaVuSans-Bold-233"/>
     <use x="139.714844" xlink:href="#DejaVuSans-Bold-108"/>
     <use x="173.992188" xlink:href="#DejaVuSans-Bold-111"/>
    </g>
    <!-- 1.6h -->
    <g style="fill:#ff4500;" transform="translate(323.484327 321.573861)scale(0.14 -0.14)">
     <defs>
      <path d="M 11.71875 12.984375 
L 28.328125 12.984375 
L 28.328125 60.109375 
L 11.28125 56.59375 
L 11.28125 69.390625 
L 28.21875 72.90625 
L 46.09375 72.90625 
L 46.09375 12.984375 
L 62.703125 12.984375 
L 62.703125 0 
L 11.71875 0 
z
" id="DejaVuSans-Bold-49"/>
     </defs>
     <use xlink:href="#DejaVuSans-Bold-49"/>
     <use x="69.580078" xlink:href="#DejaVuSans-Bold-46"/>
     <use x="107.568359" xlink:href="#DejaVuSans-Bold-54"/>
     <use x="177.148438" xlink:href="#DejaVuSans-Bold-104"/>
    </g>
   </g>
   <g id="text_3">
    <!-- PPG -->
    <g style="fill:#9932cc;" transform="translate(376.824854 245.24358)scale(0.14 -0.14)">
     <defs>
      <path d="M 74.703125 5.421875 
Q 67.671875 2 60.109375 0.28125 
Q 52.546875 -1.421875 44.484375 -1.421875 
Q 26.265625 -1.421875 15.625 8.765625 
Q 4.984375 18.953125 4.984375 36.375 
Q 4.984375 54 15.8125 64.109375 
Q 26.65625 74.21875 45.515625 74.21875 
Q 52.78125 74.21875 59.4375 72.84375 
Q 66.109375 71.484375 72.015625 68.796875 
L 72.015625 53.71875 
Q 65.921875 57.171875 59.890625 58.875 
Q 53.859375 60.59375 47.796875 60.59375 
Q 36.578125 60.59375 30.5 54.3125 
Q 24.421875 48.046875 24.421875 36.375 
Q 24.421875 24.8125 30.28125 18.5 
Q 36.140625 12.203125 46.921875 12.203125 
Q 49.859375 12.203125 52.375 12.5625 
Q 54.890625 12.9375 56.890625 13.71875 
L 56.890625 27.875 
L 45.40625 27.875 
L 45.40625 40.484375 
L 74.703125 40.484375 
z
" id="DejaVuSans-Bold-71"/>
     </defs>
     <use xlink:href="#DejaVuSans-Bold-80"/>
     <use x="73.291016" xlink:href="#DejaVuSans-Bold-80"/>
     <use x="146.582031" xlink:href="#DejaVuSans-Bold-71"/>
    </g>
    <!-- 1.0h -->
    <g style="fill:#9932cc;" transform="translate(375.448917 260.920518)scale(0.14 -0.14)">
     <defs>
      <path d="M 46 36.53125 
Q 46 50.203125 43.4375 55.78125 
Q 40.875 61.375 34.8125 61.375 
Q 28.765625 61.375 26.171875 55.78125 
Q 23.578125 50.203125 23.578125 36.53125 
Q 23.578125 22.703125 26.171875 17.03125 
Q 28.765625 11.375 34.8125 11.375 
Q 40.828125 11.375 43.40625 17.03125 
Q 46 22.703125 46 36.53125 
z
M 64.796875 36.375 
Q 64.796875 18.265625 56.984375 8.421875 
Q 49.171875 -1.421875 34.8125 -1.421875 
Q 20.40625 -1.421875 12.59375 8.421875 
Q 4.78125 18.265625 4.78125 36.375 
Q 4.78125 54.546875 12.59375 64.375 
Q 20.40625 74.21875 34.8125 74.21875 
Q 49.171875 74.21875 56.984375 64.375 
Q 64.796875 54.546875 64.796875 36.375 
z
" id="DejaVuSans-Bold-48"/>
     </defs>
     <use xlink:href="#DejaVuSans-Bold-49"/>
     <use x="69.580078" xlink:href="#DejaVuSans-Bold-46"/>
     <use x="107.568359" xlink:href="#DejaVuSans-Bold-48"/>
     <use x="177.148438" xlink:href="#DejaVuSans-Bold-104"/>
    </g>
   </g>
   <g id="text_4">
    <g id="patch_24">
     <path d="M 464.1728 436.71335 
L 574.6503 436.71335 
L 574.6503 420.97085 
L 464.1728 420.97085 
z
" style="fill:#808080;opacity:0.3;stroke:#000000;stroke-linejoin:miter;"/>
    </g>
    <!-- Crée le 11/06/2021 12:34 -->
    <g transform="translate(468.1728 431.0496)scale(0.08 -0.08)">
     <defs>
      <path d="M 64.40625 67.28125 
L 64.40625 56.890625 
Q 59.421875 61.53125 53.78125 63.8125 
Q 48.140625 66.109375 41.796875 66.109375 
Q 29.296875 66.109375 22.65625 58.46875 
Q 16.015625 50.828125 16.015625 36.375 
Q 16.015625 21.96875 22.65625 14.328125 
Q 29.296875 6.6875 41.796875 6.6875 
Q 48.140625 6.6875 53.78125 8.984375 
Q 59.421875 11.28125 64.40625 15.921875 
L 64.40625 5.609375 
Q 59.234375 2.09375 53.4375 0.328125 
Q 47.65625 -1.421875 41.21875 -1.421875 
Q 24.65625 -1.421875 15.125 8.703125 
Q 5.609375 18.84375 5.609375 36.375 
Q 5.609375 53.953125 15.125 64.078125 
Q 24.65625 74.21875 41.21875 74.21875 
Q 47.75 74.21875 53.53125 72.484375 
Q 59.328125 70.75 64.40625 67.28125 
z
" id="DejaVuSans-67"/>
      <path d="M 41.109375 46.296875 
Q 39.59375 47.171875 37.8125 47.578125 
Q 36.03125 48 33.890625 48 
Q 26.265625 48 22.1875 43.046875 
Q 18.109375 38.09375 18.109375 28.8125 
L 18.109375 0 
L 9.078125 0 
L 9.078125 54.6875 
L 18.109375 54.6875 
L 18.109375 46.1875 
Q 20.953125 51.171875 25.484375 53.578125 
Q 30.03125 56 36.53125 56 
Q 37.453125 56 38.578125 55.875 
Q 39.703125 55.765625 41.0625 55.515625 
z
" id="DejaVuSans-114"/>
      <path d="M 56.203125 29.59375 
L 56.203125 25.203125 
L 14.890625 25.203125 
Q 15.484375 15.921875 20.484375 11.0625 
Q 25.484375 6.203125 34.421875 6.203125 
Q 39.59375 6.203125 44.453125 7.46875 
Q 49.3125 8.734375 54.109375 11.28125 
L 54.109375 2.78125 
Q 49.265625 0.734375 44.1875 -0.34375 
Q 39.109375 -1.421875 33.890625 -1.421875 
Q 20.796875 -1.421875 13.15625 6.1875 
Q 5.515625 13.8125 5.515625 26.8125 
Q 5.515625 40.234375 12.765625 48.109375 
Q 20.015625 56 32.328125 56 
Q 43.359375 56 49.78125 48.890625 
Q 56.203125 41.796875 56.203125 29.59375 
z
M 47.21875 32.234375 
Q 47.125 39.59375 43.09375 43.984375 
Q 39.0625 48.390625 32.421875 48.390625 
Q 24.90625 48.390625 20.390625 44.140625 
Q 15.875 39.890625 15.1875 32.171875 
z
M 38.53125 79.984375 
L 48.25 79.984375 
L 32.34375 61.625 
L 24.859375 61.625 
z
" id="DejaVuSans-233"/>
      <path d="M 56.203125 29.59375 
L 56.203125 25.203125 
L 14.890625 25.203125 
Q 15.484375 15.921875 20.484375 11.0625 
Q 25.484375 6.203125 34.421875 6.203125 
Q 39.59375 6.203125 44.453125 7.46875 
Q 49.3125 8.734375 54.109375 11.28125 
L 54.109375 2.78125 
Q 49.265625 0.734375 44.1875 -0.34375 
Q 39.109375 -1.421875 33.890625 -1.421875 
Q 20.796875 -1.421875 13.15625 6.1875 
Q 5.515625 13.8125 5.515625 26.8125 
Q 5.515625 40.234375 12.765625 48.109375 
Q 20.015625 56 32.328125 56 
Q 43.359375 56 49.78125 48.890625 
Q 56.203125 41.796875 56.203125 29.59375 
z
M 47.21875 32.234375 
Q 47.125 39.59375 43.09375 43.984375 
Q 39.0625 48.390625 32.421875 48.390625 
Q 24.90625 48.390625 20.390625 44.140625 
Q 15.875 39.890625 15.1875 32.171875 
z
" id="DejaVuSans-101"/>
      <path id="DejaVuSans-32"/>
      <path d="M 9.421875 75.984375 
L 18.40625 75.984375 
L 18.40625 0 
L 9.421875 0 
z
" id="DejaVuSans-108"/>
      <path d="M 12.40625 8.296875 
L 28.515625 8.296875 
L 28.515625 63.921875 
L 10.984375 60.40625 
L 10.984375 69.390625 
L 28.421875 72.90625 
L 38.28125 72.90625 
L 38.28125 8.296875 
L 54.390625 8.296875 
L 54.390625 0 
L 12.40625 0 
z
" id="DejaVuSans-49"/>
      <path d="M 25.390625 72.90625 
L 33.6875 72.90625 
L 8.296875 -9.28125 
L 0 -9.28125 
z
" id="DejaVuSans-47"/>
      <path d="M 31.78125 66.40625 
Q 24.171875 66.40625 20.328125 58.90625 
Q 16.5 51.421875 16.5 36.375 
Q 16.5 21.390625 20.328125 13.890625 
Q 24.171875 6.390625 31.78125 6.390625 
Q 39.453125 6.390625 43.28125 13.890625 
Q 47.125 21.390625 47.125 36.375 
Q 47.125 51.421875 43.28125 58.90625 
Q 39.453125 66.40625 31.78125 66.40625 
z
M 31.78125 74.21875 
Q 44.046875 74.21875 50.515625 64.515625 
Q 56.984375 54.828125 56.984375 36.375 
Q 56.984375 17.96875 50.515625 8.265625 
Q 44.046875 -1.421875 31.78125 -1.421875 
Q 19.53125 -1.421875 13.0625 8.265625 
Q 6.59375 17.96875 6.59375 36.375 
Q 6.59375 54.828125 13.0625 64.515625 
Q 19.53125 74.21875 31.78125 74.21875 
z
" id="DejaVuSans-48"/>
      <path d="M 33.015625 40.375 
Q 26.375 40.375 22.484375 35.828125 
Q 18.609375 31.296875 18.609375 23.390625 
Q 18.609375 15.53125 22.484375 10.953125 
Q 26.375 6.390625 33.015625 6.390625 
Q 39.65625 6.390625 43.53125 10.953125 
Q 47.40625 15.53125 47.40625 23.390625 
Q 47.40625 31.296875 43.53125 35.828125 
Q 39.65625 40.375 33.015625 40.375 
z
M 52.59375 71.296875 
L 52.59375 62.3125 
Q 48.875 64.0625 45.09375 64.984375 
Q 41.3125 65.921875 37.59375 65.921875 
Q 27.828125 65.921875 22.671875 59.328125 
Q 17.53125 52.734375 16.796875 39.40625 
Q 19.671875 43.65625 24.015625 45.921875 
Q 28.375 48.1875 33.59375 48.1875 
Q 44.578125 48.1875 50.953125 41.515625 
Q 57.328125 34.859375 57.328125 23.390625 
Q 57.328125 12.15625 50.6875 5.359375 
Q 44.046875 -1.421875 33.015625 -1.421875 
Q 20.359375 -1.421875 13.671875 8.265625 
Q 6.984375 17.96875 6.984375 36.375 
Q 6.984375 53.65625 15.1875 63.9375 
Q 23.390625 74.21875 37.203125 74.21875 
Q 40.921875 74.21875 44.703125 73.484375 
Q 48.484375 72.75 52.59375 71.296875 
z
" id="DejaVuSans-54"/>
      <path d="M 19.1875 8.296875 
L 53.609375 8.296875 
L 53.609375 0 
L 7.328125 0 
L 7.328125 8.296875 
Q 12.9375 14.109375 22.625 23.890625 
Q 32.328125 33.6875 34.8125 36.53125 
Q 39.546875 41.84375 41.421875 45.53125 
Q 43.3125 49.21875 43.3125 52.78125 
Q 43.3125 58.59375 39.234375 62.25 
Q 35.15625 65.921875 28.609375 65.921875 
Q 23.96875 65.921875 18.8125 64.3125 
Q 13.671875 62.703125 7.8125 59.421875 
L 7.8125 69.390625 
Q 13.765625 71.78125 18.9375 73 
Q 24.125 74.21875 28.421875 74.21875 
Q 39.75 74.21875 46.484375 68.546875 
Q 53.21875 62.890625 53.21875 53.421875 
Q 53.21875 48.921875 51.53125 44.890625 
Q 49.859375 40.875 45.40625 35.40625 
Q 44.1875 33.984375 37.640625 27.21875 
Q 31.109375 20.453125 19.1875 8.296875 
z
" id="DejaVuSans-50"/>
      <path d="M 11.71875 12.40625 
L 22.015625 12.40625 
L 22.015625 0 
L 11.71875 0 
z
M 11.71875 51.703125 
L 22.015625 51.703125 
L 22.015625 39.3125 
L 11.71875 39.3125 
z
" id="DejaVuSans-58"/>
      <path d="M 40.578125 39.3125 
Q 47.65625 37.796875 51.625 33 
Q 55.609375 28.21875 55.609375 21.1875 
Q 55.609375 10.40625 48.1875 4.484375 
Q 40.765625 -1.421875 27.09375 -1.421875 
Q 22.515625 -1.421875 17.65625 -0.515625 
Q 12.796875 0.390625 7.625 2.203125 
L 7.625 11.71875 
Q 11.71875 9.328125 16.59375 8.109375 
Q 21.484375 6.890625 26.8125 6.890625 
Q 36.078125 6.890625 40.9375 10.546875 
Q 45.796875 14.203125 45.796875 21.1875 
Q 45.796875 27.640625 41.28125 31.265625 
Q 36.765625 34.90625 28.71875 34.90625 
L 20.21875 34.90625 
L 20.21875 43.015625 
L 29.109375 43.015625 
Q 36.375 43.015625 40.234375 45.921875 
Q 44.09375 48.828125 44.09375 54.296875 
Q 44.09375 59.90625 40.109375 62.90625 
Q 36.140625 65.921875 28.71875 65.921875 
Q 24.65625 65.921875 20.015625 65.03125 
Q 15.375 64.15625 9.8125 62.3125 
L 9.8125 71.09375 
Q 15.4375 72.65625 20.34375 73.4375 
Q 25.25 74.21875 29.59375 74.21875 
Q 40.828125 74.21875 47.359375 69.109375 
Q 53.90625 64.015625 53.90625 55.328125 
Q 53.90625 49.265625 50.4375 45.09375 
Q 46.96875 40.921875 40.578125 39.3125 
z
" id="DejaVuSans-51"/>
      <path d="M 37.796875 64.3125 
L 12.890625 25.390625 
L 37.796875 25.390625 
z
M 35.203125 72.90625 
L 47.609375 72.90625 
L 47.609375 25.390625 
L 58.015625 25.390625 
L 58.015625 17.1875 
L 47.609375 17.1875 
L 47.609375 0 
L 37.796875 0 
L 37.796875 17.1875 
L 4.890625 17.1875 
L 4.890625 26.703125 
z
" id="DejaVuSans-52"/>
     </defs>
     <use xlink:href="#DejaVuSans-67"/>
     <use x="69.824219" xlink:href="#DejaVuSans-114"/>
     <use x="108.6875" xlink:href="#DejaVuSans-233"/>
     <use x="170.210938" xlink:href="#DejaVuSans-101"/>
     <use x="231.734375" xlink:href="#DejaVuSans-32"/>
     <use x="263.521484" xlink:href="#DejaVuSans-108"/>
     <use x="291.304688" xlink:href="#DejaVuSans-101"/>
     <use x="352.828125" xlink:href="#DejaVuSans-32"/>
     <use x="384.615234" xlink:href="#DejaVuSans-49"/>
     <use x="448.238281" xlink:href="#DejaVuSans-49"/>
     <use x="511.861328" xlink:href="#DejaVuSans-47"/>
     <use x="545.552734" xlink:href="#DejaVuSans-48"/>
     <use x="609.175781" xlink:href="#DejaVuSans-54"/>
     <use x="672.798828" xlink:href="#DejaVuSans-47"/>
     <use x="706.490234" xlink:href="#DejaVuSans-50"/>
     <use x="770.113281" xlink:href="#DejaVuSans-48"/>
     <use x="833.736328" xlink:href="#DejaVuSans-50"/>
     <use x="897.359375" xlink:href="#DejaVuSans-49"/>
     <use x="960.982422" xlink:href="#DejaVuSans-32"/>
     <use x="992.769531" xlink:href="#DejaVuSans-49"/>
     <use x="1056.392578" xlink:href="#DejaVuSans-50"/>
     <use x="1120.015625" xlink:href="#DejaVuSans-58"/>
     <use x="1153.707031" xlink:href="#DejaVuSans-51"/>
     <use x="1217.330078" xlink:href="#DejaVuSans-52"/>
    </g>
   </g>
   <g id="text_5">
    <!-- Semaine 23 -->
    <g transform="translate(242.49625 27.9235)scale(0.16 -0.16)">
     <defs>
      <path d="M 59.90625 70.609375 
L 59.90625 55.171875 
Q 53.90625 57.859375 48.1875 59.21875 
Q 42.484375 60.59375 37.40625 60.59375 
Q 30.671875 60.59375 27.4375 58.734375 
Q 24.21875 56.890625 24.21875 52.984375 
Q 24.21875 50.046875 26.390625 48.40625 
Q 28.5625 46.78125 34.28125 45.609375 
L 42.28125 44 
Q 54.4375 41.546875 59.5625 36.5625 
Q 64.703125 31.59375 64.703125 22.40625 
Q 64.703125 10.359375 57.546875 4.46875 
Q 50.390625 -1.421875 35.6875 -1.421875 
Q 28.765625 -1.421875 21.78125 -0.09375 
Q 14.796875 1.21875 7.8125 3.8125 
L 7.8125 19.671875 
Q 14.796875 15.96875 21.3125 14.078125 
Q 27.828125 12.203125 33.890625 12.203125 
Q 40.046875 12.203125 43.3125 14.25 
Q 46.578125 16.3125 46.578125 20.125 
Q 46.578125 23.53125 44.359375 25.390625 
Q 42.140625 27.25 35.5 28.71875 
L 28.21875 30.328125 
Q 17.28125 32.671875 12.21875 37.796875 
Q 7.171875 42.921875 7.171875 51.609375 
Q 7.171875 62.5 14.203125 68.359375 
Q 21.234375 74.21875 34.421875 74.21875 
Q 40.4375 74.21875 46.78125 73.3125 
Q 53.125 72.40625 59.90625 70.609375 
z
" id="DejaVuSans-Bold-83"/>
      <path d="M 62.984375 27.484375 
L 62.984375 22.515625 
L 22.125 22.515625 
Q 22.75 16.359375 26.5625 13.28125 
Q 30.375 10.203125 37.203125 10.203125 
Q 42.71875 10.203125 48.5 11.84375 
Q 54.296875 13.484375 60.40625 16.796875 
L 60.40625 3.328125 
Q 54.203125 0.984375 48 -0.21875 
Q 41.796875 -1.421875 35.59375 -1.421875 
Q 20.75 -1.421875 12.515625 6.125 
Q 4.296875 13.671875 4.296875 27.296875 
Q 4.296875 40.671875 12.375 48.328125 
Q 20.453125 56 34.625 56 
Q 47.515625 56 55.25 48.234375 
Q 62.984375 40.484375 62.984375 27.484375 
z
M 45.015625 33.296875 
Q 45.015625 38.28125 42.109375 41.328125 
Q 39.203125 44.390625 34.515625 44.390625 
Q 29.4375 44.390625 26.265625 41.53125 
Q 23.09375 38.671875 22.3125 33.296875 
z
" id="DejaVuSans-Bold-101"/>
      <path d="M 59.078125 45.609375 
Q 62.40625 50.6875 66.96875 53.34375 
Q 71.53125 56 77 56 
Q 86.421875 56 91.359375 50.1875 
Q 96.296875 44.390625 96.296875 33.296875 
L 96.296875 0 
L 78.71875 0 
L 78.71875 28.515625 
Q 78.765625 29.15625 78.78125 29.828125 
Q 78.8125 30.515625 78.8125 31.78125 
Q 78.8125 37.59375 77.09375 40.203125 
Q 75.390625 42.828125 71.578125 42.828125 
Q 66.609375 42.828125 63.890625 38.71875 
Q 61.1875 34.625 61.078125 26.859375 
L 61.078125 0 
L 43.5 0 
L 43.5 28.515625 
Q 43.5 37.59375 41.9375 40.203125 
Q 40.375 42.828125 36.375 42.828125 
Q 31.34375 42.828125 28.609375 38.703125 
Q 25.875 34.578125 25.875 26.90625 
L 25.875 0 
L 8.296875 0 
L 8.296875 54.6875 
L 25.875 54.6875 
L 25.875 46.6875 
Q 29.109375 51.3125 33.28125 53.65625 
Q 37.453125 56 42.484375 56 
Q 48.140625 56 52.484375 53.265625 
Q 56.84375 50.53125 59.078125 45.609375 
z
" id="DejaVuSans-Bold-109"/>
      <path d="M 32.90625 24.609375 
Q 27.4375 24.609375 24.671875 22.75 
Q 21.921875 20.90625 21.921875 17.28125 
Q 21.921875 13.96875 24.140625 12.078125 
Q 26.375 10.203125 30.328125 10.203125 
Q 35.25 10.203125 38.625 13.734375 
Q 42 17.28125 42 22.609375 
L 42 24.609375 
z
M 59.625 31.203125 
L 59.625 0 
L 42 0 
L 42 8.109375 
Q 38.484375 3.125 34.078125 0.84375 
Q 29.6875 -1.421875 23.390625 -1.421875 
Q 14.890625 -1.421875 9.59375 3.53125 
Q 4.296875 8.5 4.296875 16.40625 
Q 4.296875 26.03125 10.90625 30.515625 
Q 17.53125 35.015625 31.6875 35.015625 
L 42 35.015625 
L 42 36.375 
Q 42 40.53125 38.71875 42.453125 
Q 35.453125 44.390625 28.515625 44.390625 
Q 22.90625 44.390625 18.0625 43.265625 
Q 13.234375 42.140625 9.078125 39.890625 
L 9.078125 53.21875 
Q 14.703125 54.59375 20.359375 55.296875 
Q 26.03125 56 31.6875 56 
Q 46.484375 56 53.046875 50.171875 
Q 59.625 44.34375 59.625 31.203125 
z
" id="DejaVuSans-Bold-97"/>
      <path d="M 8.40625 54.6875 
L 25.875 54.6875 
L 25.875 0 
L 8.40625 0 
z
M 8.40625 75.984375 
L 25.875 75.984375 
L 25.875 61.71875 
L 8.40625 61.71875 
z
" id="DejaVuSans-Bold-105"/>
      <path d="M 63.375 33.296875 
L 63.375 0 
L 45.796875 0 
L 45.796875 5.421875 
L 45.796875 25.484375 
Q 45.796875 32.5625 45.484375 35.25 
Q 45.171875 37.9375 44.390625 39.203125 
Q 43.359375 40.921875 41.59375 41.875 
Q 39.84375 42.828125 37.59375 42.828125 
Q 32.125 42.828125 29 38.59375 
Q 25.875 34.375 25.875 26.90625 
L 25.875 0 
L 8.40625 0 
L 8.40625 54.6875 
L 25.875 54.6875 
L 25.875 46.6875 
Q 29.828125 51.46875 34.265625 53.734375 
Q 38.71875 56 44.09375 56 
Q 53.5625 56 58.46875 50.1875 
Q 63.375 44.390625 63.375 33.296875 
z
" id="DejaVuSans-Bold-110"/>
      <path id="DejaVuSans-Bold-32"/>
      <path d="M 28.8125 13.8125 
L 60.890625 13.8125 
L 60.890625 0 
L 7.90625 0 
L 7.90625 13.8125 
L 34.515625 37.3125 
Q 38.09375 40.53125 39.796875 43.609375 
Q 41.5 46.6875 41.5 50 
Q 41.5 55.125 38.0625 58.25 
Q 34.625 61.375 28.90625 61.375 
Q 24.515625 61.375 19.28125 59.5 
Q 14.0625 57.625 8.109375 53.90625 
L 8.109375 69.921875 
Q 14.453125 72.015625 20.65625 73.109375 
Q 26.859375 74.21875 32.8125 74.21875 
Q 45.90625 74.21875 53.15625 68.453125 
Q 60.40625 62.703125 60.40625 52.390625 
Q 60.40625 46.4375 57.328125 41.28125 
Q 54.25 36.140625 44.390625 27.484375 
z
" id="DejaVuSans-Bold-50"/>
      <path d="M 46.578125 39.3125 
Q 53.953125 37.40625 57.78125 32.6875 
Q 61.625 27.984375 61.625 20.703125 
Q 61.625 9.859375 53.3125 4.21875 
Q 45.015625 -1.421875 29.109375 -1.421875 
Q 23.484375 -1.421875 17.84375 -0.515625 
Q 12.203125 0.390625 6.6875 2.203125 
L 6.6875 16.703125 
Q 11.96875 14.0625 17.15625 12.71875 
Q 22.359375 11.375 27.390625 11.375 
Q 34.859375 11.375 38.84375 13.953125 
Q 42.828125 16.546875 42.828125 21.390625 
Q 42.828125 26.375 38.75 28.9375 
Q 34.671875 31.5 26.703125 31.5 
L 19.1875 31.5 
L 19.1875 43.609375 
L 27.09375 43.609375 
Q 34.1875 43.609375 37.640625 45.828125 
Q 41.109375 48.046875 41.109375 52.59375 
Q 41.109375 56.78125 37.734375 59.078125 
Q 34.375 61.375 28.21875 61.375 
Q 23.6875 61.375 19.046875 60.34375 
Q 14.40625 59.328125 9.8125 57.328125 
L 9.8125 71.09375 
Q 15.375 72.65625 20.84375 73.4375 
Q 26.3125 74.21875 31.59375 74.21875 
Q 45.796875 74.21875 52.84375 69.546875 
Q 59.90625 64.890625 59.90625 55.515625 
Q 59.90625 49.125 56.53125 45.046875 
Q 53.171875 40.96875 46.578125 39.3125 
z
" id="DejaVuSans-Bold-51"/>
     </defs>
     <use xlink:href="#DejaVuSans-Bold-83"/>
     <use x="72.021484" xlink:href="#DejaVuSans-Bold-101"/>
     <use x="139.84375" xlink:href="#DejaVuSans-Bold-109"/>
     <use x="244.042969" xlink:href="#DejaVuSans-Bold-97"/>
     <use x="311.523438" xlink:href="#DejaVuSans-Bold-105"/>
     <use x="345.800781" xlink:href="#DejaVuSans-Bold-110"/>
     <use x="416.992188" xlink:href="#DejaVuSans-Bold-101"/>
     <use x="484.814453" xlink:href="#DejaVuSans-Bold-32"/>
     <use x="519.628906" xlink:href="#DejaVuSans-Bold-50"/>
     <use x="589.208984" xlink:href="#DejaVuSans-Bold-51"/>
    </g>
    <!-- Total : 10.2h -->
    <g transform="translate(239.14 45.84)scale(0.16 -0.16)">
     <defs>
      <path d="M 0.484375 72.90625 
L 67.671875 72.90625 
L 67.671875 58.6875 
L 43.5 58.6875 
L 43.5 0 
L 24.703125 0 
L 24.703125 58.6875 
L 0.484375 58.6875 
z
" id="DejaVuSans-Bold-84"/>
      <path d="M 27.484375 70.21875 
L 27.484375 54.6875 
L 45.515625 54.6875 
L 45.515625 42.1875 
L 27.484375 42.1875 
L 27.484375 19 
Q 27.484375 15.1875 29 13.84375 
Q 30.515625 12.5 35.015625 12.5 
L 44 12.5 
L 44 0 
L 29 0 
Q 18.65625 0 14.328125 4.3125 
Q 10.015625 8.640625 10.015625 19 
L 10.015625 42.1875 
L 1.3125 42.1875 
L 1.3125 54.6875 
L 10.015625 54.6875 
L 10.015625 70.21875 
z
" id="DejaVuSans-Bold-116"/>
      <path d="M 11.1875 54.6875 
L 28.8125 54.6875 
L 28.8125 35.796875 
L 11.1875 35.796875 
z
M 11.1875 18.890625 
L 28.8125 18.890625 
L 28.8125 0 
L 11.1875 0 
z
" id="DejaVuSans-Bold-58"/>
     </defs>
     <use xlink:href="#DejaVuSans-Bold-84"/>
     <use x="54.962891" xlink:href="#DejaVuSans-Bold-111"/>
     <use x="123.664062" xlink:href="#DejaVuSans-Bold-116"/>
     <use x="171.466797" xlink:href="#DejaVuSans-Bold-97"/>
     <use x="238.947266" xlink:href="#DejaVuSans-Bold-108"/>
     <use x="273.224609" xlink:href="#DejaVuSans-Bold-32"/>
     <use x="308.039062" xlink:href="#DejaVuSans-Bold-58"/>
     <use x="348.029297" xlink:href="#DejaVuSans-Bold-32"/>
     <use x="382.84375" xlink:href="#DejaVuSans-Bold-49"/>
     <use x="452.423828" xlink:href="#DejaVuSans-Bold-48"/>
     <use x="522.003906" xlink:href="#DejaVuSans-Bold-46"/>
     <use x="559.992188" xlink:href="#DejaVuSans-Bold-50"/>
     <use x="629.572266" xlink:href="#DejaVuSans-Bold-104"/>
    </g>
   </g>
  </g>
 </g>
</svg>
